<?xml version="1.0" encoding="UTF-8"?>
<svg id="_三摺" xmlns="http://www.w3.org/2000/svg" version="1.1" viewBox="0 0 45.84 85.81">
  <!-- Generator: Adobe Illustrator 29.5.0, SVG Export Plug-In . SVG Version: 2.1.0 Build 137)  -->
  <defs>
    <style>
      .st0 {
        fill: #b5b4b9;
      }
    </style>
  </defs>
  <g>
    <path class="st0" d="M45.56,70.19c-3.19-11.01-19.8-7.31-20.25,3.4-2.17,8.07,12.5,18.6,14.48,7.22,4.34-1.24,6.93-6.28,5.78-10.61h-.01Z"/>
    <path class="st0" d="M19.58,73.82c-4.68-4.59-13.79,1.53-8.64,7.07,4.68,4.59,13.79-1.53,8.64-7.07Z"/>
    <path class="st0" d="M21.33,63.63c-1.81-6.39-12.68-5.86-11.01,1.68,1.81,6.39,12.68,5.86,11.01-1.68Z"/>
    <path class="st0" d="M30.52,54.24c-1.12-8.16-13.03-4.04-9.49,3.24,1.81,7.15,12.83,3.49,9.49-3.24Z"/>
    <path class="st0" d="M43.18,51.14c-2.96-6.72-12.25-1.08-9.14,5.03,2.96,6.72,12.25,1.08,9.14-5.03Z"/>
  </g>
  <g>
    <path class="st0" d="M36.09,19.17c-5.92-8.94-21.96-3.66-21.55,7.13-.18,11.7,13.08,12.18,16.61,2.2,4.71-.32,7.34-5.36,4.94-9.34h0Z"/>
    <path class="st0" d="M11.12,27.44c-1.18-4.74-9-4.95-10.66-.51-3.35,8.65,12.8,9.34,10.66.51Z"/>
    <path class="st0" d="M11.01,12.94C8.06,7.9-1.14,9.66.5,16.21c2.09,7.11,14.32,4.19,10.51-3.27Z"/>
    <path class="st0" d="M21.19,5.43c.04-6.54-10.05-6.75-10.06-.14-.93,9.25,12.84,9.52,10.06.14Z"/>
    <path class="st0" d="M34.39,1.56c-6.43-5.92-12.6,6.65-5.46,9.67,5.71,2.56,9.24-5.85,5.46-9.67Z"/>
  </g>
</svg>