<?xml version="1.0" encoding="UTF-8"?>
<svg id="_圖層_1" data-name="圖層 1" xmlns="http://www.w3.org/2000/svg" viewBox="0 0 155.4 134.99">
  <g id="_聯繫我" data-name="聯繫我">
    <g>
      <rect width="45" height="45" style="fill: #3e3e3e;"/>
      <g>
        <path d="M2.14,35.72V13.32h8.7c1.81,0,3.32.31,4.53.94,1.21.63,2.1,1.47,2.69,2.51.59,1.05.88,2.21.88,3.49,0,1.2-.28,2.32-.85,3.36s-1.45,1.89-2.64,2.53c-1.2.64-2.74.96-4.64.96h-3.87v8.61H2.14ZM6.94,23.66h3.62c1.2,0,2.08-.29,2.64-.86.56-.58.85-1.36.85-2.34s-.28-1.72-.85-2.29c-.57-.56-1.45-.85-2.64-.85h-3.62v6.34ZM13.7,35.72l-4.51-9.79h5.15l4.8,9.79h-5.44Z" style="fill: #fff;"/>
        <path d="M32.58,36.1c-1.56,0-2.96-.36-4.19-1.09-1.24-.72-2.22-1.72-2.94-2.99-.73-1.27-1.09-2.71-1.09-4.34s.36-3.13,1.09-4.4c.72-1.27,1.71-2.27,2.96-2.99,1.25-.73,2.64-1.09,4.18-1.09s2.99.36,4.22,1.09c1.24.72,2.22,1.72,2.94,2.99.72,1.27,1.09,2.72,1.09,4.37s-.36,3.1-1.09,4.37c-.73,1.27-1.71,2.27-2.94,2.99-1.24.73-2.65,1.09-4.22,1.09ZM32.58,31.94c.64,0,1.21-.16,1.71-.48.5-.32.9-.8,1.2-1.44.3-.64.45-1.43.45-2.37s-.15-1.73-.45-2.37c-.3-.64-.69-1.12-1.18-1.44s-1.06-.48-1.7-.48-1.21.16-1.71.48-.9.8-1.2,1.44c-.3.64-.45,1.43-.45,2.37s.15,1.73.45,2.37c.3.64.7,1.12,1.2,1.44s1.06.48,1.68.48Z" style="fill: #fff;"/>
        <path d="M50.3,35.72l-4.77-16.13h4.74l3.01,12.93-.9-.03,3.46-12.9h5.28l3.46,12.9-.9.03,2.98-12.93h4.74l-4.74,16.13h-4.99l-3.68-13.22h.99l-3.71,13.22h-4.96Z" style="fill: #3e3e3e;"/>
        <path d="M78.53,36.1c-1.34,0-2.46-.21-3.34-.64-.89-.43-1.54-1.01-1.95-1.74s-.62-1.55-.62-2.45c0-.96.24-1.81.72-2.54.48-.74,1.23-1.32,2.26-1.76,1.02-.44,2.31-.66,3.87-.66h3.9c0-.72-.09-1.32-.27-1.79-.18-.47-.47-.82-.88-1.05s-.96-.35-1.66-.35c-.75,0-1.38.15-1.89.45s-.83.77-.96,1.41h-4.61c.11-1.15.49-2.15,1.14-3.01.65-.85,1.52-1.53,2.61-2.02,1.09-.49,2.34-.73,3.74-.73,1.54,0,2.87.25,4,.75,1.13.5,2.01,1.23,2.64,2.19.63.96.94,2.15.94,3.58v9.98h-4l-.58-2.34c-.23.4-.51.77-.83,1.1-.32.33-.69.62-1.12.86-.43.25-.9.43-1.41.56-.51.13-1.08.19-1.7.19ZM79.71,32.46c.51,0,.96-.09,1.34-.26.38-.17.71-.41.99-.71s.51-.64.69-1.04c.18-.39.31-.83.4-1.3v-.03h-3.1c-.53,0-.98.07-1.33.21-.35.14-.61.34-.78.59s-.26.55-.26.9c0,.36.09.67.27.91.18.25.43.43.74.54.31.12.66.18,1.04.18Z" style="fill: #3e3e3e;"/>
        <path d="M92.16,35.72v-16.13h4.19l.38,2.59c.49-.89,1.18-1.62,2.08-2.16.9-.54,1.98-.81,3.26-.81,1.34,0,2.47.29,3.39.86s1.62,1.4,2.1,2.48c.48,1.08.72,2.39.72,3.95v9.22h-4.77v-8.77c0-1.17-.25-2.09-.75-2.74-.5-.65-1.3-.98-2.38-.98-.64,0-1.22.15-1.74.46-.52.31-.93.75-1.23,1.33-.3.58-.45,1.27-.45,2.08v8.61h-4.8Z" style="fill: #3e3e3e;"/>
      </g>
      <g>
        <path d="M36.1,7.4V3.19l-1,.27v-.98l1.53-.68h.72v5.6h-1.25Z" style="fill: #fff;"/>
        <path d="M40.73,7.5c-.52,0-.96-.12-1.33-.37-.37-.25-.65-.58-.85-1.02s-.3-.94-.3-1.51.1-1.07.3-1.51.48-.78.85-1.02.81-.37,1.33-.37.96.12,1.33.37.65.59.85,1.02c.2.43.3.94.3,1.51s-.1,1.07-.3,1.51c-.2.43-.48.77-.85,1.02-.37.25-.81.37-1.33.37ZM40.73,6.42c.25,0,.47-.07.66-.22s.34-.36.44-.63c.1-.27.16-.59.16-.96s-.05-.69-.16-.96c-.1-.27-.25-.48-.44-.62s-.41-.22-.66-.22-.47.07-.66.22-.34.35-.44.62c-.1.27-.16.59-.16.96s.05.69.16.96c.1.27.25.48.44.63s.41.22.66.22Z" style="fill: #fff;"/>
      </g>
    </g>
    <g>
      <rect x="45" y="45" width="45" height="45" style="fill: #3e3e3e;"/>
      <g>
        <path d="M47.14,80.72v-22.4h7.78c2.6,0,4.75.46,6.45,1.39s2.95,2.23,3.78,3.9,1.23,3.64,1.23,5.9-.41,4.2-1.23,5.87-2.08,2.98-3.78,3.92c-1.7.94-3.85,1.41-6.45,1.41h-7.78ZM51.94,76.59h2.69c1.73,0,3.09-.28,4.1-.85s1.71-1.38,2.13-2.43c.42-1.06.62-2.32.62-3.79s-.21-2.77-.62-3.82c-.42-1.06-1.13-1.87-2.13-2.43s-2.37-.85-4.1-.85h-2.69v14.18Z" style="fill: #fff;"/>
        <path d="M78.63,81.1c-1.66,0-3.12-.35-4.38-1.04-1.26-.69-2.25-1.66-2.96-2.91s-1.07-2.68-1.07-4.3.35-3.15,1.06-4.45c.7-1.3,1.68-2.32,2.94-3.07s2.72-1.12,4.38-1.12,3.04.35,4.26,1.06,2.17,1.66,2.86,2.86,1.04,2.6,1.04,4.18c0,.21,0,.45-.02.72-.01.27-.04.54-.08.82h-13.02v-2.78h8.22c-.04-.9-.37-1.62-.98-2.16-.61-.54-1.36-.82-2.26-.82-.68,0-1.3.16-1.86.48s-1,.8-1.33,1.44c-.33.64-.5,1.45-.5,2.43v.96c0,.75.14,1.41.43,1.98.29.58.7,1.02,1.25,1.34s1.19.48,1.94.48c.7,0,1.29-.14,1.74-.43.46-.29.82-.66,1.07-1.1h4.9c-.3,1.02-.81,1.95-1.54,2.77-.73.82-1.61,1.47-2.66,1.95-1.04.48-2.2.72-3.46.72Z" style="fill: #fff;"/>
        <path d="M97.8,81.1c-1.51,0-2.82-.24-3.92-.72-1.1-.48-1.96-1.14-2.59-1.97-.63-.83-.99-1.77-1.07-2.82h4.77c.08.36.24.69.46.98.22.29.53.51.93.67s.84.24,1.33.24c.53,0,.96-.07,1.3-.21.33-.14.58-.32.75-.56.17-.23.26-.48.26-.74,0-.4-.12-.71-.37-.93-.25-.21-.6-.39-1.07-.53-.47-.14-1.04-.27-1.7-.4-.77-.17-1.53-.37-2.29-.59-.76-.22-1.43-.51-2.02-.85-.59-.34-1.06-.78-1.41-1.33-.35-.54-.53-1.21-.53-2,0-.96.27-1.83.8-2.61s1.3-1.4,2.3-1.86c1-.46,2.22-.69,3.65-.69,2.03,0,3.62.45,4.77,1.34,1.15.9,1.83,2.1,2.05,3.62h-4.48c-.13-.43-.39-.75-.8-.98-.41-.22-.92-.34-1.54-.34-.7,0-1.24.12-1.6.35-.36.23-.54.54-.54.93,0,.26.12.49.37.69.24.2.6.38,1.07.53.47.15,1.04.3,1.73.45,1.3.28,2.43.58,3.38.9.95.32,1.69.78,2.22,1.39.53.61.79,1.49.77,2.64.02,1.05-.25,1.97-.82,2.78s-1.37,1.45-2.42,1.9c-1.05.46-2.29.69-3.74.69Z" style="fill: #3e3e3e;"/>
        <path d="M111.62,62.73c-.85,0-1.55-.24-2.08-.74s-.8-1.11-.8-1.86.27-1.4.8-1.89c.53-.49,1.23-.74,2.08-.74s1.58.25,2.13.74c.54.49.82,1.12.82,1.89s-.27,1.37-.82,1.86-1.25.74-2.13.74ZM109.22,80.72v-16.13h4.8v16.13h-4.8Z" style="fill: #3e3e3e;"/>
        <path d="M126.15,88.14c-1.58,0-2.94-.19-4.1-.56-1.15-.37-2.04-.93-2.67-1.68-.63-.75-.94-1.69-.94-2.82,0-.81.22-1.57.66-2.27s1.06-1.33,1.87-1.87,1.78-1,2.91-1.36l1.6,2.43c-.94.28-1.64.64-2.1,1.09-.46.45-.69.95-.69,1.5,0,.43.15.79.45,1.09s.71.52,1.23.67c.52.15,1.1.22,1.74.22s1.16-.08,1.62-.22c.46-.15.82-.37,1.09-.66.27-.29.4-.63.4-1.04,0-.53-.18-.96-.54-1.28-.36-.32-1.11-.52-2.24-.61-1.04-.09-1.99-.21-2.83-.37s-1.59-.36-2.24-.59c-.65-.23-1.21-.49-1.68-.77-.47-.28-.83-.55-1.09-.83v-.74l3.52-3.87,3.3,1.02-4.26,4.32,1.47-2.43c.21.13.44.25.67.37.23.12.52.22.86.3.34.08.77.17,1.28.24.51.08,1.17.16,1.98.24,1.39.13,2.53.39,3.44.78.91.39,1.58.93,2.02,1.62s.66,1.51.66,2.5-.27,1.87-.8,2.72c-.53.85-1.34,1.54-2.43,2.06s-2.47.78-4.16.78ZM126.18,76.04c-1.34,0-2.51-.27-3.49-.8s-1.74-1.24-2.27-2.13c-.53-.89-.8-1.88-.8-2.99s.27-2.07.8-2.96c.53-.88,1.29-1.6,2.27-2.14s2.14-.82,3.49-.82,2.54.27,3.52.82c.98.54,1.73,1.26,2.24,2.14.51.89.77,1.87.77,2.96s-.26,2.11-.77,2.99c-.51.88-1.26,1.59-2.24,2.13-.98.53-2.16.8-3.52.8ZM126.18,72.43c.73,0,1.32-.19,1.79-.58.47-.38.7-.95.7-1.7s-.24-1.31-.7-1.7c-.47-.38-1.07-.58-1.79-.58s-1.33.19-1.81.58c-.48.38-.72.95-.72,1.7s.24,1.31.72,1.7c.48.38,1.08.58,1.81.58ZM128.87,67.88l-.7-3.3h6.69v2.72l-5.98.58Z" style="fill: #3e3e3e;"/>
        <path d="M139.27,80.72v-16.13h4.19l.38,2.59c.49-.9,1.18-1.62,2.08-2.16.9-.54,1.98-.82,3.26-.82,1.34,0,2.47.29,3.39.86.92.58,1.62,1.4,2.1,2.48.48,1.08.72,2.39.72,3.95v9.22h-4.77v-8.77c0-1.17-.25-2.08-.75-2.74-.5-.65-1.3-.98-2.38-.98-.64,0-1.22.16-1.74.46s-.93.75-1.23,1.33c-.3.58-.45,1.27-.45,2.08v8.61h-4.8Z" style="fill: #3e3e3e;"/>
      </g>
      <g>
        <path d="M79.17,52.97v-.89c.33-.27.65-.53.96-.79.32-.26.6-.52.86-.78.25-.26.45-.51.6-.76s.22-.49.22-.72c0-.13-.03-.26-.08-.37-.05-.12-.13-.21-.23-.27-.1-.07-.24-.1-.41-.1s-.31.04-.42.11c-.12.08-.21.18-.26.31s-.09.28-.09.45h-1.16c.02-.43.11-.78.29-1.06.18-.28.41-.49.71-.62.3-.13.62-.2.98-.2.42,0,.76.08,1.04.23.28.15.49.35.63.61.14.25.21.54.21.84,0,.25-.04.48-.13.71-.08.23-.2.45-.35.66-.15.21-.32.41-.51.61-.19.19-.39.38-.6.56s-.41.35-.62.51h2.31v.98h-3.96Z" style="fill: #fff;"/>
        <path d="M85.99,53.07c-.42,0-.78-.07-1.08-.22s-.53-.35-.7-.6c-.17-.25-.26-.54-.28-.86h1.17c.03.18.13.34.29.47.16.13.36.2.6.2.17,0,.32-.04.45-.13.13-.09.23-.21.3-.36s.11-.32.11-.51c0-.2-.04-.37-.11-.51-.08-.14-.18-.25-.3-.32s-.28-.11-.44-.11c-.2,0-.37.05-.52.15-.15.1-.26.22-.32.36h-1.16l.46-3.25h3.2v1.05h-2.31l-.21,1.1c.11-.11.26-.2.45-.27s.4-.1.63-.1c.31,0,.58.05.8.16.22.1.41.25.56.43.15.18.26.38.33.61.07.22.1.46.1.7,0,.3-.05.58-.15.83-.1.25-.24.46-.42.64-.18.18-.4.32-.64.42s-.52.15-.8.15Z" style="fill: #fff;"/>
      </g>
    </g>
    <g>
      <rect x="10.82" y="89.99" width="45" height="45" style="fill: #3e3e3e;"/>
      <g>
        <path d="M46.05,97.24v-.89c.33-.27.65-.53.96-.79.32-.26.6-.52.86-.78.25-.26.45-.51.6-.76s.22-.49.22-.72c0-.13-.03-.26-.08-.37-.05-.12-.13-.21-.23-.27-.1-.07-.24-.1-.41-.1s-.31.04-.42.11c-.12.08-.21.18-.26.31s-.09.28-.09.45h-1.16c.02-.43.11-.78.29-1.06.18-.28.41-.49.71-.62.3-.13.62-.2.98-.2.42,0,.76.08,1.04.23.28.15.49.35.63.61.14.25.21.54.21.84,0,.25-.04.48-.13.71-.08.23-.2.45-.35.66-.15.21-.32.41-.51.61-.19.19-.39.38-.6.56s-.41.35-.62.51h2.31v.98h-3.96Z" style="fill: #fff;"/>
        <path d="M51.09,97.24l2.02-4.58h-2.61v-1.02h3.84v.84l-2.01,4.76h-1.24Z" style="fill: #fff;"/>
      </g>
      <g>
        <path d="M23.11,126.1c-2.24,0-4.17-.48-5.79-1.46-1.62-.97-2.87-2.33-3.74-4.06s-1.31-3.74-1.31-6,.44-4.33,1.31-6.06c.88-1.74,2.12-3.1,3.74-4.1,1.62-.99,3.55-1.49,5.79-1.49,2.77,0,5.04.69,6.8,2.08s2.85,3.34,3.28,5.86h-5.25c-.26-1.13-.8-2.01-1.63-2.64-.83-.63-1.91-.94-3.23-.94s-2.33.3-3.22.9c-.89.6-1.56,1.44-2.02,2.51-.46,1.08-.69,2.37-.69,3.89s.23,2.75.69,3.82c.46,1.08,1.13,1.91,2.02,2.5.88.59,1.96.88,3.22.88,1.32,0,2.39-.28,3.22-.85.82-.56,1.37-1.38,1.65-2.45h5.25c-.43,2.37-1.52,4.23-3.28,5.58-1.76,1.36-4.03,2.03-6.8,2.03Z" style="fill: #fff;"/>
        <path d="M45.25,126.1c-1.56,0-2.96-.36-4.19-1.09-1.24-.72-2.22-1.72-2.94-2.99-.73-1.27-1.09-2.71-1.09-4.34s.36-3.13,1.09-4.4c.72-1.27,1.71-2.27,2.96-2.99s2.64-1.09,4.18-1.09,2.99.36,4.22,1.09,2.22,1.72,2.94,2.99c.72,1.27,1.09,2.73,1.09,4.37s-.36,3.1-1.09,4.37c-.73,1.27-1.71,2.27-2.94,2.99-1.24.73-2.65,1.09-4.22,1.09ZM45.25,121.94c.64,0,1.21-.16,1.71-.48.5-.32.9-.8,1.2-1.44.3-.64.45-1.43.45-2.37s-.15-1.73-.45-2.37c-.3-.64-.69-1.12-1.18-1.44s-1.06-.48-1.7-.48-1.21.16-1.71.48-.9.8-1.2,1.44c-.3.64-.45,1.43-.45,2.37s.15,1.73.45,2.37c.3.64.7,1.12,1.2,1.44s1.06.48,1.68.48Z" style="fill: #fff;"/>
        <path d="M56.55,113.58v-4h10.24v4h-10.24ZM58.66,125.71v-17.28c0-1.41.25-2.53.74-3.38.49-.84,1.18-1.45,2.06-1.82.88-.37,1.9-.56,3.06-.56h2.05v4.06h-1.28c-.66,0-1.13.13-1.41.38s-.42.69-.42,1.31v17.28h-4.8Z" style="fill: #3e3e3e;"/>
        <path d="M69.51,113.58v-4h10.24v4h-10.24ZM71.62,125.71v-17.28c0-1.41.25-2.53.74-3.38.49-.84,1.18-1.45,2.06-1.82.88-.37,1.9-.56,3.06-.56h2.05v4.06h-1.28c-.66,0-1.13.13-1.41.38s-.42.69-.42,1.31v17.28h-4.8Z" style="fill: #3e3e3e;"/>
        <path d="M91.21,126.1c-1.66,0-3.12-.35-4.38-1.04-1.26-.69-2.25-1.66-2.96-2.91s-1.07-2.68-1.07-4.3.35-3.15,1.06-4.45c.7-1.3,1.68-2.32,2.94-3.07s2.72-1.12,4.38-1.12,3.04.35,4.26,1.06,2.17,1.66,2.86,2.86,1.04,2.6,1.04,4.18c0,.21,0,.45-.02.72-.01.27-.04.54-.08.82h-13.02v-2.78h8.22c-.04-.9-.37-1.62-.98-2.16-.61-.54-1.36-.82-2.26-.82-.68,0-1.3.16-1.86.48s-1,.8-1.33,1.44c-.33.64-.5,1.45-.5,2.43v.96c0,.75.14,1.41.43,1.98.29.58.7,1.02,1.25,1.34s1.19.48,1.94.48c.7,0,1.29-.14,1.74-.43.46-.29.82-.66,1.07-1.1h4.9c-.3,1.02-.81,1.95-1.54,2.77-.73.82-1.61,1.47-2.66,1.95-1.04.48-2.2.72-3.46.72Z" style="fill: #3e3e3e;"/>
        <path d="M111.59,126.1c-1.66,0-3.12-.35-4.38-1.04-1.26-.69-2.25-1.66-2.96-2.91s-1.07-2.68-1.07-4.3.35-3.15,1.06-4.45c.7-1.3,1.68-2.32,2.94-3.07s2.72-1.12,4.38-1.12,3.04.35,4.26,1.06,2.17,1.66,2.86,2.86,1.04,2.6,1.04,4.18c0,.21,0,.45-.02.72-.01.27-.04.54-.08.82h-13.02v-2.78h8.22c-.04-.9-.37-1.62-.98-2.16-.61-.54-1.36-.82-2.26-.82-.68,0-1.3.16-1.86.48s-1,.8-1.33,1.44c-.33.64-.5,1.45-.5,2.43v.96c0,.75.14,1.41.43,1.98.29.58.7,1.02,1.25,1.34s1.19.48,1.94.48c.7,0,1.29-.14,1.74-.43.46-.29.82-.66,1.07-1.1h4.9c-.3,1.02-.81,1.95-1.54,2.77-.73.82-1.61,1.47-2.66,1.95-1.04.48-2.2.72-3.46.72Z" style="fill: #3e3e3e;"/>
      </g>
    </g>
  </g>
</svg>